# xmcd
#
# Track frame offsets:
#	150
#	31189
#	63329
#	82456
#	90639
#	105091
#	125056
#	153304
#	175884
#	200414
#	233371
#	257154
#	281649
#	299334
#
# Disc length: 4469 seconds
#
# Revision: 1
# Processed by: cddbd v1.5.2PL0 Copyright (c) Steve Scherf et al.
# Submitted via: audiograbber 1.83.01
#
DISCID=be11730e
DTITLE=Marc Almond - 12 Years Of Tears - Live At The Royal Albert Hall
DYEAR=1993
DGENRE=New Wave
TTITLE0=Tears Run Rings
TTITLE1=Champagne
TTITLE2=Bedsitter
TTITLE3=Mr. Sad
TTITLE4=There Is A Bed
TTITLE5=Youth
TTITLE6=If You Go Away
TTITLE7=Jacky
TTITLE8=Desperate Hours
TTITLE9=Waifs And Strays
TTITLE10=Something's Gotten Hold Of My Heart
TTITLE11=What Makes A Man A Man
TTITLE12=Tainted Love
TTITLE13=Say Hello Wave Goodbye
EXTD=
EXTT0=
EXTT1=
EXTT2=
EXTT3=
EXTT4=
EXTT5=
EXTT6=
EXTT7=
EXTT8=
EXTT9=
EXTT10=
EXTT11=
EXTT12=
EXTT13=
PLAYORDER=
